<svg width="552" height="552" viewBox="0 0 552 552" fill="none" xmlns="http://www.w3.org/2000/svg">
<path d="M520.192 289.975C508.388 334.017 480.357 383.145 436.015 401.142C369.016 428.34 366.099 484.725 242.072 491.397C222.734 492.44 204.673 491.436 187.904 488.679C178.89 487.198 170.245 485.198 161.989 482.73C87.0204 460.41 43.2137 399.679 33.642 332.664C21.0387 244.525 78.7713 196.412 116.551 167.858C154.332 139.304 193.551 38.9296 315.428 31.4113C334.011 30.2731 352.732 31.0349 371.104 34.1747C413.039 41.3231 456.935 61.8133 484.508 95.2733C486.578 97.7871 488.571 100.372 490.495 103.016C528.058 154.746 536.288 229.932 520.192 289.975Z" fill="#51B4A1"/>
<path opacity="0.7" d="M520.192 289.975C508.388 334.017 480.357 383.145 436.015 401.142C369.016 428.34 366.099 484.725 242.072 491.397C222.734 492.44 204.673 491.436 187.904 488.679C178.89 487.198 170.245 485.198 161.989 482.73C87.0204 460.41 43.2137 399.679 33.642 332.664C21.0387 244.525 78.7713 196.412 116.551 167.858C154.332 139.304 193.551 38.9296 315.428 31.4113C334.011 30.2731 352.732 31.0349 371.104 34.1747C413.039 41.3231 456.935 61.8133 484.508 95.2733C486.578 97.7871 488.571 100.372 490.495 103.016C528.058 154.746 536.288 229.932 520.192 289.975Z" fill="white"/>
<path opacity="0.3" d="M97.5504 122.245V115.99C97.5504 103.639 89.3344 99.2686 80.9385 99.2686C72.3781 99.2686 64.5121 105.561 64.5121 115.99V122.245H62.1738V156.889H99.7043V122.245H97.5504ZM82.0469 141.285V147.561H78.492V141.285C76.7566 140.581 75.53 138.884 75.53 136.896C75.53 134.279 77.6519 132.157 80.2695 132.157C82.8871 132.157 85.009 134.279 85.009 136.896C85.009 138.884 83.7824 140.58 82.0469 141.285ZM92.3495 122.245H69.5276V115.99C69.5276 109.698 74.6468 104.579 80.9385 104.579C87.2302 104.579 92.3495 108.883 92.3495 115.99V122.245Z" stroke="black" stroke-width="1.104" stroke-miterlimit="10"/>
<path opacity="0.3" d="M229.964 86.7489H123.589C115.373 86.7489 108.713 80.0885 108.713 71.8725C108.713 63.6565 115.373 56.9961 123.589 56.9961H229.964C238.18 56.9961 244.841 63.6565 244.841 71.8725C244.841 80.0885 238.18 86.7489 229.964 86.7489Z" stroke="black" stroke-width="1.104" stroke-miterlimit="10"/>
<g opacity="0.3">
<path d="M137.019 70.4882L140.12 73.9117L138.628 75.0245L136.316 70.9563L134.034 75.0245L132.542 73.9117L135.614 70.4882L131.078 69.552L131.633 67.7657L135.906 69.6392L135.379 65.0156H137.252L136.755 69.6392L141.027 67.7966L141.583 69.5807L137.019 70.4882Z" fill="black"/>
<path d="M148.573 70.4882L151.675 73.9117L150.182 75.0245L147.869 70.9563L145.587 75.0245L144.094 73.9117L147.167 70.4882L142.633 69.552L143.188 67.7657L147.461 69.6392L146.934 65.0156H148.807L148.311 69.6392L152.583 67.7966L153.138 69.5807L148.573 70.4882Z" fill="black"/>
<path d="M160.132 70.4882L163.233 73.9117L161.741 75.0245L159.428 70.9563L157.145 75.0245L155.652 73.9117L158.726 70.4882L154.191 69.552L154.747 67.7657L159.019 69.6392L158.493 65.0156H160.366L159.869 69.6392L164.142 67.7966L164.697 69.5807L160.132 70.4882Z" fill="black"/>
<path d="M171.687 70.4882L174.788 73.9117L173.295 75.0245L170.982 70.9563L168.699 75.0245L167.207 73.9117L170.28 70.4882L165.746 69.552L166.301 67.7657L170.575 69.6392L170.048 65.0156H171.922L171.425 69.6392L175.698 67.7966L176.253 69.5807L171.687 70.4882Z" fill="black"/>
<path d="M183.243 70.4882L186.344 73.9117L184.852 75.0245L182.539 70.9563L180.257 75.0245L178.764 73.9117L181.837 70.4882L177.303 69.552L177.858 67.7657L182.131 69.6392L181.604 65.0156H183.477L182.981 69.6392L187.253 67.7966L187.808 69.5807L183.243 70.4882Z" fill="black"/>
<path d="M194.8 70.4882L197.901 73.9117L196.41 75.0245L194.097 70.9563L191.815 75.0245L190.322 73.9117L193.395 70.4882L188.859 69.552L189.415 67.7657L193.687 69.6392L193.161 65.0156H195.034L194.537 69.6392L198.81 67.7966L199.365 69.5807L194.8 70.4882Z" fill="black"/>
<path d="M206.356 70.4882L209.457 73.9117L207.964 75.0245L205.651 70.9563L203.368 75.0245L201.877 73.9117L204.949 70.4882L200.414 69.552L200.969 67.7657L205.242 69.6392L204.715 65.0156H206.589L206.092 69.6392L210.364 67.7966L210.92 69.5807L206.356 70.4882Z" fill="black"/>
<path d="M217.912 70.4882L221.014 73.9117L219.522 75.0245L217.209 70.9563L214.926 75.0245L213.433 73.9117L216.507 70.4882L211.971 69.552L212.526 67.7657L216.798 69.6392L216.272 65.0156H218.145L217.649 69.6392L221.921 67.7966L222.476 69.5807L217.912 70.4882Z" fill="black"/>
</g>
<path opacity="0.3" d="M92.4124 259.927C91.431 258.231 90.0565 257.267 88.618 257.267H86.1141V255.023C87.9015 252.92 89.0574 249.723 89.0574 246.442C89.0574 240.811 85.6692 236.246 81.4894 236.246C77.3097 236.246 73.9215 240.811 73.9215 246.442C73.9215 249.596 74.9847 252.677 76.6539 254.779V257.268H73.3066C71.8316 257.268 70.4229 258.231 69.4161 259.928L64.8809 267.57H80.2276H81.909H96.835L92.4124 259.927Z" stroke="black" stroke-width="1.104" stroke-miterlimit="10"/>
<path opacity="0.3" d="M103.023 263.209C108.044 251.088 102.288 237.191 90.166 232.17C78.0444 227.149 64.1476 232.905 59.1265 245.027C54.1055 257.148 59.8616 271.045 71.9832 276.066C84.1048 281.087 98.0016 275.331 103.023 263.209Z" stroke="black" stroke-width="1.104" stroke-miterlimit="10"/>
<g opacity="0.2">
<path d="M258.699 357.418C217.57 334.448 189.693 290.484 189.693 240.125C189.693 166.097 249.919 105.872 323.946 105.872C333.19 105.872 342.212 106.83 350.933 108.62L347.507 120.102L385.657 111.024L358.719 82.5254L355.449 93.4848C345.287 91.3033 334.75 90.1397 323.945 90.1397C241.242 90.1397 173.959 157.423 173.959 240.126C173.959 298.059 206.979 348.422 255.185 373.395L245.696 357.672L258.699 357.418Z" fill="black"/>
<path d="M379.293 100.725L391.077 113.192L376.605 116.637C424.533 137.152 458.199 184.779 458.199 240.124C458.199 314.151 397.974 374.378 323.946 374.378C310.434 374.378 297.387 372.361 285.078 368.629L289.739 360.181L250.531 360.942L270.793 394.517L277.323 382.683C292.005 387.497 307.674 390.112 323.945 390.112C406.648 390.112 473.931 322.828 473.931 240.126C473.932 176.959 434.682 122.794 379.293 100.725Z" fill="black"/>
</g>
<path d="M501.246 76.4277L475.965 71.6032L475.922 71.6893C474.66 74.2407 472.603 75.6604 470.696 75.2972L469.598 75.0874C467.691 74.7231 466.302 72.6454 466.068 69.8092L466.06 69.7132L440.779 64.8887C433.738 63.5451 426.941 68.1632 425.597 75.2045L392.805 241.588C392.035 245.629 394.684 249.529 398.725 250.3L470.058 263.912C474.098 264.683 477.999 262.033 478.769 257.993L511.561 91.6088C512.905 84.5686 508.287 77.7713 501.246 76.4277Z" fill="#51B4A1" stroke="#263238" stroke-width="1.104" stroke-miterlimit="10" stroke-linecap="round" stroke-linejoin="round"/>
<path d="M510.853 95.3239L511.562 91.6089C512.905 84.5676 508.287 77.7703 501.246 76.4267L475.965 71.6022L475.922 71.6883C474.66 74.2397 472.604 75.6594 470.696 75.2962L469.598 75.0865C467.691 74.7221 466.302 72.6444 466.068 69.8082L466.06 69.7122L440.78 64.8877C433.738 63.5441 426.941 68.1622 425.597 75.2035L424.889 78.9184L510.853 95.3239Z" fill="white" stroke="#263238" stroke-width="1.104" stroke-miterlimit="10" stroke-linecap="round" stroke-linejoin="round"/>
<path d="M505.31 148.603L508.394 132.447L506.932 132.167L516.123 89.4592C517.467 82.4179 512.848 75.6206 505.807 74.277L437.327 61.209C430.286 59.8654 423.489 64.4835 422.145 71.5248L388.436 242.715C387.092 249.757 391.711 256.554 398.751 257.898L467.231 270.966C474.273 272.309 481.07 267.69 482.414 260.65L501.221 162.091L502.683 162.371L504.505 152.824L503.043 152.545L503.849 148.322L505.31 148.603ZM480.145 250.78C478.801 257.821 472.004 262.439 464.963 261.096L404.497 249.557C397.455 248.213 392.837 241.416 394.181 234.375L425.596 75.2044C426.94 68.1631 433.737 63.5451 440.778 64.8886L466.059 69.7131L466.067 69.8092C466.301 72.6464 467.689 74.7231 469.597 75.0874L470.695 75.2971C472.602 75.6615 474.659 74.2417 475.921 71.6893L475.964 71.6032L501.244 76.4276C508.286 77.7712 512.904 84.5685 511.56 91.6098L480.145 250.78Z" fill="#707070" stroke="#263238" stroke-width="1.104" stroke-miterlimit="10" stroke-linecap="round" stroke-linejoin="round"/>
<path d="M503.239 75.6084L439.227 63.3926C431.767 61.9695 424.567 66.8625 423.143 74.3222L390.393 240.485C388.97 247.945 393.862 255.145 401.322 256.569L465.334 268.785C472.794 270.208 479.994 265.315 481.418 257.857L514.169 91.6936C515.592 84.2328 510.699 77.0314 503.239 75.6084ZM480.146 250.78C478.802 257.821 472.005 262.439 464.963 261.096L404.497 249.557C397.456 248.213 392.838 241.416 394.182 234.375L425.597 75.2043C426.941 68.163 433.738 63.545 440.779 64.8885L466.06 69.713L466.067 69.8091C466.301 72.6463 467.69 74.723 469.598 75.0873L470.695 75.297C472.603 75.6614 474.66 74.2416 475.922 71.6892L475.965 71.6031L501.245 76.4275C508.287 77.7711 512.905 84.5684 511.561 91.6097L480.146 250.78Z" fill="#263238" stroke="#263238" stroke-width="1.104" stroke-miterlimit="10" stroke-linecap="round" stroke-linejoin="round"/>
<path d="M471.829 71.447C471.955 70.7857 471.521 70.1476 470.861 70.0218C470.2 69.8959 469.562 70.3287 469.436 70.99C469.31 71.6513 469.744 72.2894 470.404 72.4152C471.064 72.5422 471.702 72.1083 471.829 71.447Z" fill="#707070"/>
<path d="M434.677 69.1109C434.446 70.322 433.002 70.4986 432.821 71.4215L432.809 71.4845L434.128 71.7362L434.051 72.1436L432.289 71.8079L432.355 71.4635C432.603 70.1663 434.011 70.174 434.227 69.0435C434.305 68.6306 434.209 68.3867 433.877 68.3226C433.55 68.2608 433.361 68.4683 433.293 68.8238L433.225 69.1793L432.807 69.0998L432.869 68.7731C432.986 68.1592 433.344 67.8048 433.964 67.923C434.59 68.0422 434.794 68.4971 434.677 69.1109Z" fill="#263238"/>
<path d="M436.878 69.5248L436.858 69.6275C436.78 70.0404 436.558 70.302 436.213 70.3605C436.528 70.5515 436.619 70.8838 436.542 71.2857L436.483 71.5959C436.366 72.2097 436.003 72.5564 435.382 72.4382C434.768 72.3212 434.559 71.8642 434.676 71.2503L434.729 70.9743L435.147 71.0538L435.088 71.3574C435.019 71.7195 435.127 71.9657 435.448 72.0276C435.775 72.0894 435.959 71.905 436.037 71.4976L436.096 71.1874C436.171 70.7911 436.041 70.5703 435.704 70.4941L435.464 70.4477L435.541 70.0459L435.805 70.0967C436.105 70.1419 436.326 69.9885 436.392 69.6385L436.428 69.4541C436.506 69.0412 436.403 68.8017 436.076 68.7387C435.755 68.6769 435.563 68.8723 435.495 69.2344L435.455 69.4409L435.037 69.3614L435.072 69.1781C435.189 68.5643 435.551 68.2232 436.165 68.3402C436.783 68.4605 436.995 68.911 436.878 69.5248Z" fill="#263238"/>
<path d="M437.686 69.9948L437.58 70.5512L437.15 70.4695L437.256 69.9131L437.686 69.9948ZM437.269 72.1807L437.163 72.7371L436.732 72.6554L436.838 72.099L437.269 72.1807Z" fill="#263238"/>
<path d="M438.524 70.5293C438.692 70.335 438.915 70.2588 439.184 70.3107C439.701 70.4089 439.857 70.8318 439.748 71.4058L439.598 72.1919C439.481 72.8057 439.112 73.1513 438.498 73.0342C437.885 72.9172 437.674 72.4602 437.791 71.8463L437.843 71.577L438.261 71.6564L438.205 71.9545C438.135 72.3166 438.243 72.5628 438.565 72.6235C438.886 72.6854 439.077 72.4955 439.146 72.1334L439.295 71.3528C439.365 70.9918 439.257 70.7445 438.936 70.6838C438.689 70.6363 438.496 70.7423 438.4 71.0283L438.382 71.1199L437.964 71.0404L438.499 68.8291L440.083 69.1316L440.006 69.5335L438.824 69.3082L438.524 70.5293Z" fill="#263238"/>
<path d="M442.229 70.54L442.215 70.6151L441.796 70.5356L441.816 70.4329C441.886 70.0708 441.776 69.8302 441.45 69.7683C441.111 69.7032 440.92 69.8931 440.838 70.3236L440.666 71.2245C440.827 70.9695 441.075 70.8569 441.397 70.9176C441.913 71.0159 442.071 71.4332 441.961 72.0128L441.845 72.6211C441.728 73.2349 441.346 73.5782 440.732 73.4612C440.113 73.3431 439.885 72.8827 440.002 72.2689L440.393 70.2199C440.515 69.5829 440.878 69.2417 441.515 69.3632C442.134 69.4802 442.347 69.9262 442.229 70.54ZM440.56 71.7798L440.445 72.3826C440.375 72.7447 440.484 72.9909 440.81 73.0527C441.132 73.1135 441.328 72.9258 441.398 72.5637L441.512 71.9609C441.582 71.5988 441.468 71.3515 441.147 71.2907C440.819 71.2278 440.628 71.4177 440.56 71.7798Z" fill="#263238"/>
<path d="M486.066 79.0866L484.932 78.8701L484.39 81.706L485.525 81.9225L486.066 79.0866Z" fill="#263238"/>
<path d="M487.679 78.8014L486.545 78.585L485.895 81.9891L487.03 82.2055L487.679 78.8014Z" fill="#263238"/>
<path d="M489.269 78.6871L488.135 78.4707L487.408 82.2782L488.543 82.4947L489.269 78.6871Z" fill="#263238"/>
<path d="M490.914 78.275L489.779 78.0586L488.919 82.5667L490.054 82.7831L490.914 78.275Z" fill="#263238"/>
<path d="M504.096 85.3868L497.291 84.0885L498.085 79.9297L504.89 81.228L504.096 85.3868ZM497.741 83.7826L503.79 84.9374L504.439 81.5349L498.391 80.3801L497.741 83.7826Z" fill="#263238"/>
<path d="M502.484 81.5671L498.893 80.8818L498.4 83.4618L501.992 84.147L502.484 81.5671Z" fill="#263238"/>
<path d="M505.213 82.9445L504.357 82.7812L504.171 83.7605L505.026 83.9238L505.213 82.9445Z" fill="#263238"/>
<path d="M494.967 82.7073C494.923 82.6984 494.88 82.6786 494.844 82.6465C493.616 81.5591 492.555 82.1486 492.51 82.174C492.386 82.2458 492.228 82.2027 492.157 82.0802C492.085 81.9565 492.125 81.7998 492.248 81.728C492.306 81.6938 493.667 80.9144 495.187 82.2601C495.294 82.3551 495.304 82.5185 495.209 82.6256C495.147 82.6962 495.054 82.7238 494.967 82.7073Z" fill="#263238"/>
<path d="M495.642 81.9511C495.598 81.9422 495.555 81.9224 495.519 81.8904C493.744 80.3172 492.179 81.2125 492.162 81.2213C492.039 81.2942 491.88 81.2533 491.808 81.1297C491.735 81.0072 491.776 80.8482 491.899 80.7753C491.919 80.7632 493.807 79.6835 495.863 81.5028C495.97 81.5978 495.98 81.7612 495.885 81.8683C495.821 81.9389 495.728 81.9676 495.642 81.9511Z" fill="#263238"/>
<path d="M496.296 81.0503C496.252 81.0415 496.209 81.0216 496.173 80.9896C493.925 78.998 491.968 80.0953 491.885 80.1439C491.761 80.2157 491.603 80.1737 491.531 80.0512C491.46 79.9286 491.501 79.7708 491.623 79.6979C491.646 79.6836 493.977 78.3521 496.516 80.6032C496.623 80.6981 496.633 80.8615 496.538 80.9686C496.476 81.0393 496.382 81.0669 496.296 81.0503Z" fill="#263238"/>
<path d="M494.123 82.987C494.055 83.3392 493.715 83.57 493.363 83.5026C493.011 83.4353 492.78 83.0952 492.848 82.7431C492.915 82.3909 493.255 82.1602 493.607 82.2275C493.958 82.2948 494.189 82.6349 494.123 82.987Z" fill="#263238"/>
<path d="M476.691 203.12L416.779 191.687C413.582 191.076 411.485 187.991 412.096 184.795L421.693 134.506C422.304 131.309 425.389 129.213 428.585 129.822L488.497 141.255C491.694 141.866 493.791 144.951 493.18 148.149L483.583 198.437C482.974 201.633 479.887 203.731 476.691 203.12Z" fill="white" stroke="#263238" stroke-width="1.104" stroke-miterlimit="10"/>
<path d="M439.655 122.309L438.885 116.411L439.886 116.602L440.423 121.11L442.593 117.119L443.506 117.293L440.607 122.491L440.015 125.592L439.064 125.41L439.655 122.309Z" fill="#263238"/>
<path d="M443.541 119.464C443.794 118.142 444.611 117.414 445.934 117.667C447.267 117.922 447.76 118.899 447.508 120.222L446.654 124.695C446.405 126.005 445.585 126.745 444.25 126.49C442.927 126.237 442.438 125.248 442.688 123.938L443.541 119.464ZM443.629 124.168C443.478 124.959 443.726 125.48 444.418 125.612C445.122 125.747 445.531 125.351 445.681 124.56L446.553 119.989C446.702 119.21 446.47 118.679 445.766 118.545C445.074 118.412 444.65 118.818 444.502 119.597L443.629 124.168Z" fill="#263238"/>
<path d="M448.477 125.094C448.328 125.873 448.547 126.402 449.252 126.536C449.944 126.669 450.342 126.258 450.49 125.48L451.752 118.869L452.655 119.041L451.403 125.602C451.154 126.913 450.38 127.673 449.046 127.419C447.724 127.167 447.285 126.174 447.536 124.865L448.788 118.304L449.738 118.485L448.477 125.094Z" fill="#263238"/>
<path d="M455.535 119.589C456.894 119.849 457.33 120.649 457.085 121.934L456.951 122.639C456.769 123.59 456.321 124.12 455.535 124.213C456.282 124.598 456.455 125.298 456.278 126.224L456.021 127.571C455.948 127.954 455.892 128.314 455.996 128.642L455.02 128.456C454.956 128.187 454.948 127.956 455.06 127.375L455.319 126.016C455.506 125.04 455.107 124.644 454.303 124.49L453.624 124.361L452.919 128.055L451.955 127.871L453.606 119.221L455.535 119.589ZM454.51 123.62C455.276 123.766 455.78 123.607 455.959 122.667L456.117 121.839C456.266 121.061 456.06 120.598 455.342 120.462L454.404 120.283L453.793 123.483L454.51 123.62Z" fill="#263238"/>
<path d="M463.814 123.334L463.665 124.112L462.751 123.938L462.909 123.11C463.057 122.331 462.838 121.803 462.134 121.668C461.441 121.535 461.031 121.944 460.882 122.722L460.01 127.294C459.86 128.072 460.092 128.603 460.785 128.736C461.489 128.87 461.887 128.46 462.035 127.681L462.25 126.557L463.164 126.732L462.958 127.807C462.709 129.118 461.926 129.864 460.59 129.609C459.269 129.357 458.816 128.375 459.066 127.064L459.919 122.591C460.168 121.281 460.951 120.534 462.274 120.786C463.612 121.041 464.064 122.024 463.814 123.334Z" fill="#263238"/>
<path d="M464.62 123.489C464.873 122.167 465.69 121.438 467.012 121.691C468.347 121.946 468.84 122.923 468.588 124.246L467.734 128.719C467.485 130.03 466.665 130.77 465.33 130.514C464.007 130.262 463.518 129.272 463.768 127.962L464.62 123.489ZM464.708 128.193C464.557 128.983 464.805 129.504 465.496 129.637C466.2 129.771 466.61 129.375 466.76 128.585L467.632 124.013C467.781 123.235 467.548 122.704 466.844 122.569C466.152 122.438 465.729 122.843 465.581 123.621L464.708 128.193Z" fill="#263238"/>
<path d="M471.928 122.719C473.275 122.976 473.738 123.909 473.483 125.243L472.65 129.605C472.399 130.927 471.625 131.625 470.278 131.367L468.252 130.981L469.902 122.331L471.928 122.719ZM470.432 130.489C471.125 130.621 471.54 130.251 471.691 129.461L472.54 125.013C472.691 124.222 472.441 123.725 471.736 123.591L470.698 123.393L469.382 130.288L470.432 130.489Z" fill="#263238"/>
<path d="M477.145 127.683L476.98 128.547L474.867 128.144L474.28 131.221L476.874 131.717L476.707 132.594L473.148 131.915L474.799 123.266L478.357 123.945L478.189 124.822L475.595 124.327L475.032 127.28L477.145 127.683Z" fill="#263238"/>
<path d="M433.005 157.358C433.687 156.57 434.592 156.26 435.688 156.468C437.786 156.869 438.424 158.586 437.98 160.916L437.37 164.11C436.894 166.604 435.394 168.009 432.899 167.534C430.405 167.058 429.55 165.203 430.026 162.709L430.236 161.613L431.938 161.937L431.707 163.15C431.426 164.619 431.863 165.62 433.168 165.869C434.474 166.118 435.249 165.348 435.53 163.878L436.135 160.708C436.415 159.238 435.978 158.237 434.672 157.988C433.67 157.797 432.887 158.228 432.496 159.385L432.425 159.758L430.724 159.434L432.898 150.449L439.333 151.677L439.022 153.309L434.218 152.392L433.005 157.358Z" fill="#263238"/>
<path d="M448.05 157.402L447.992 157.706L446.29 157.381L446.37 156.961C446.651 155.493 446.209 154.515 444.88 154.261C443.504 153.998 442.729 154.769 442.395 156.518L441.696 160.177C442.353 159.143 443.359 158.683 444.665 158.932C446.762 159.333 447.406 161.025 446.957 163.38L446.485 165.852C446.009 168.346 444.463 169.742 441.968 169.267C439.449 168.786 438.525 166.918 439.001 164.424L440.59 156.101C441.083 153.514 442.557 152.127 445.145 152.622C447.662 153.1 448.525 154.907 448.05 157.402ZM441.264 162.437L440.797 164.885C440.517 166.354 440.955 167.356 442.283 167.609C443.588 167.858 444.388 167.093 444.668 165.623L445.135 163.176C445.415 161.708 444.954 160.701 443.649 160.452C442.321 160.198 441.545 160.969 441.264 162.437Z" fill="#263238"/>
<path d="M457.118 159.132L457.061 159.436L455.358 159.111L455.439 158.692C455.719 157.224 455.278 156.245 453.948 155.991C452.573 155.729 451.798 156.499 451.463 158.248L450.764 161.908C451.421 160.873 452.427 160.413 453.733 160.663C455.831 161.063 456.474 162.756 456.025 165.111L455.554 167.582C455.078 170.076 453.531 171.473 451.036 170.997C448.518 170.517 447.594 168.649 448.07 166.155L449.658 157.832C450.152 155.244 451.626 153.857 454.213 154.352C456.729 154.831 457.594 156.638 457.118 159.132ZM450.333 164.169L449.866 166.616C449.585 168.086 450.024 169.087 451.352 169.341C452.657 169.591 453.456 168.824 453.736 167.355L454.203 164.907C454.484 163.439 454.023 162.432 452.719 162.184C451.388 161.93 450.613 162.701 450.333 164.169Z" fill="#263238"/>
<path d="M466.182 160.886L464.593 169.209C464.099 171.797 462.621 173.207 460.01 172.708C457.516 172.232 456.634 170.396 457.11 167.902L457.167 167.599L458.869 167.923L458.788 168.344C458.508 169.812 458.974 170.795 460.279 171.044C461.677 171.311 462.452 170.541 462.781 168.816L463.48 165.157C462.824 166.191 461.823 166.628 460.517 166.379C458.419 165.978 457.771 164.309 458.221 161.954L458.697 159.459C459.172 156.965 460.691 155.587 463.209 156.067C465.729 156.548 466.659 158.392 466.182 160.886ZM460.511 159.708L460.044 162.156C459.764 163.624 460.224 164.631 461.529 164.88C462.859 165.133 463.634 164.363 463.914 162.893L464.381 160.446C464.666 158.953 464.224 157.975 462.896 157.722C461.59 157.473 460.796 158.216 460.511 159.708Z" fill="#263238"/>
<path d="M475.43 162.578L475.331 163.091C475.016 164.746 474.202 165.848 472.825 166.093C474.075 166.887 474.343 168.267 474.032 169.898L473.8 171.111C473.32 173.629 471.716 174.942 469.175 174.457C466.634 173.972 465.626 172.161 466.106 169.642L466.338 168.43C466.654 166.775 467.402 165.637 468.885 165.34C467.654 164.573 467.322 163.278 467.638 161.622L467.736 161.108C468.216 158.59 469.834 157.329 472.353 157.81C474.87 158.292 475.91 160.061 475.43 162.578ZM469.523 161.499L469.372 162.292C469.069 163.877 469.704 164.723 470.987 164.968C472.269 165.213 473.172 164.66 473.474 163.075L473.626 162.282C473.946 160.603 473.323 159.688 472.041 159.442C470.759 159.198 469.843 159.821 469.523 161.499ZM468.175 168.564L467.912 169.939C467.592 171.617 468.186 172.552 469.492 172.802C470.797 173.05 471.672 172.396 472.015 170.722L472.278 169.346C472.58 167.761 472.028 166.859 470.676 166.601C469.323 166.342 468.478 166.978 468.175 168.564Z" fill="#263238"/>
<path d="M416.615 205.904L472.981 216.661" stroke="#263238" stroke-width="1.104" stroke-miterlimit="10"/>
<path d="M414.518 216.902L470.883 227.66" stroke="#263238" stroke-width="1.104" stroke-miterlimit="10"/>
<path d="M508.02 164.47L521.654 162.372" stroke="#263238" stroke-width="1.104" stroke-miterlimit="10"/>
<path d="M505.92 180.203L513.263 182.301" stroke="#263238" stroke-width="1.104" stroke-miterlimit="10"/>
<path d="M501.725 193.837L515.36 203.277" stroke="#263238" stroke-width="1.104" stroke-miterlimit="10"/>
<path d="M377.32 190.662C378.795 190.662 379.991 189.466 379.991 187.99V165.92C379.991 164.444 378.796 163.248 377.32 163.248H377.199V154.615C377.199 148.734 372.431 143.966 366.55 143.966H133.606C127.725 143.966 122.957 148.734 122.957 154.615V315.54C122.957 321.422 127.725 326.189 133.606 326.189H366.55C372.431 326.189 377.199 321.421 377.199 315.54V257.804H377.32C378.795 257.804 379.991 256.608 379.991 255.132V233.061C379.991 231.585 378.796 230.389 377.32 230.389H377.199V227.602H377.32C378.795 227.602 379.991 226.406 379.991 224.93V202.859C379.991 201.383 378.796 200.187 377.32 200.187H377.199V190.662H377.32Z" fill="#263238"/>
<path d="M367.702 151.064H132.453V319.089H367.702V151.064Z" fill="#51B4A1" stroke="#263238" stroke-width="1.104" stroke-miterlimit="10"/>
<path d="M316.255 172.665H184.693V278.334H316.255V172.665Z" fill="#E3E3E3" stroke="#263238" stroke-width="1.104" stroke-miterlimit="10"/>
<path d="M234.19 249.046V249.707H232.576V252.059H234.559V252.729H231.84V246.119H234.559V246.789H232.576V249.046H234.19Z" fill="#B2B2B2"/>
<path d="M235.888 252.729H235.227V246.119H236.162L237.692 250.897V246.119H238.343V252.729H237.578L235.888 247.384V252.729Z" fill="#B2B2B2"/>
<path d="M240.053 252.729V246.789H238.834V246.119H241.998V246.789H240.779V252.729H240.053Z" fill="#B2B2B2"/>
<path d="M244.848 249.046V249.707H243.234V252.059H245.217V252.729H242.498V246.119H245.217V246.789H243.234V249.046H244.848Z" fill="#B2B2B2"/>
<path d="M247.367 246.119C248.406 246.119 248.84 246.648 248.84 247.629V248.168C248.84 248.895 248.585 249.348 248.019 249.528C248.623 249.707 248.849 250.198 248.849 250.907V251.936C248.849 252.229 248.859 252.504 248.981 252.73H248.235C248.15 252.541 248.112 252.371 248.112 251.927V250.888C248.112 250.142 247.764 249.906 247.15 249.906H246.631V252.729H245.895V246.119H247.367ZM247.178 249.235C247.764 249.235 248.114 249.046 248.114 248.328V247.696C248.114 247.101 247.896 246.789 247.349 246.789H246.631V249.235H247.178Z" fill="#B2B2B2"/>
<path d="M253.994 247.716V248.311H253.295V247.679C253.295 247.083 253.059 246.725 252.521 246.725C251.992 246.725 251.747 247.083 251.747 247.679V251.173C251.747 251.768 251.992 252.127 252.521 252.127C253.06 252.127 253.295 251.768 253.295 251.173V250.314H253.994V251.135C253.994 252.135 253.521 252.797 252.502 252.797C251.492 252.797 251.02 252.135 251.02 251.135V247.717C251.02 246.716 251.492 246.056 252.502 246.056C253.521 246.053 253.994 246.715 253.994 247.716Z" fill="#B2B2B2"/>
<path d="M254.607 247.716C254.607 246.706 255.108 246.055 256.118 246.055C257.138 246.055 257.638 246.706 257.638 247.716V251.134C257.638 252.134 257.138 252.796 256.118 252.796C255.108 252.796 254.607 252.134 254.607 251.134V247.716ZM255.335 251.172C255.335 251.776 255.589 252.126 256.119 252.126C256.658 252.126 256.903 251.777 256.903 251.172V247.678C256.903 247.083 256.658 246.724 256.119 246.724C255.59 246.724 255.335 247.083 255.335 247.678V251.172Z" fill="#B2B2B2"/>
<path d="M259.885 246.119C260.914 246.119 261.386 246.743 261.386 247.762V251.095C261.386 252.105 260.914 252.729 259.885 252.729H258.336V246.119H259.885ZM259.875 252.059C260.404 252.059 260.659 251.729 260.659 251.124V247.724C260.659 247.12 260.404 246.789 259.865 246.789H259.072V252.058L259.875 252.059Z" fill="#B2B2B2"/>
<path d="M264.425 249.046V249.707H262.811V252.059H264.793V252.729H262.074V246.119H264.793V246.789H262.811V249.046H264.425Z" fill="#B2B2B2"/>
<path d="M305.871 207.567H194.852V220.094H305.871V207.567Z" fill="white" stroke="#263238" stroke-width="1.104" stroke-miterlimit="10"/>
<path d="M305.871 227.438H194.852V239.966H305.871V227.438Z" fill="white" stroke="#263238" stroke-width="1.104" stroke-miterlimit="10"/>
<path d="M266.045 255.7H255.562V268.227H266.045V255.7Z" fill="white" stroke="#263238" stroke-width="1.104" stroke-miterlimit="10"/>
<path d="M252.705 255.7H242.223V268.227H252.705V255.7Z" fill="white" stroke="#263238" stroke-width="1.104" stroke-miterlimit="10"/>
<path d="M239.362 255.7H228.881V268.227H239.362V255.7Z" fill="white" stroke="#263238" stroke-width="1.104" stroke-miterlimit="10"/>
<path d="M226.023 255.7H216.018V268.227H226.023V255.7Z" fill="white" stroke="#263238" stroke-width="1.104" stroke-miterlimit="10"/>
<path d="M279.767 255.7H268.904V268.227H279.767V255.7Z" fill="white" stroke="#263238" stroke-width="1.104" stroke-miterlimit="10"/>
<path d="M255.767 187.005V184.601C255.767 180.696 252.591 177.52 248.686 177.52C244.781 177.52 241.605 180.696 241.605 184.601V187.005H241.473V200.323H255.9V187.005H255.767ZM249.112 194.325V196.737H247.746V194.325C247.079 194.054 246.607 193.402 246.607 192.638C246.607 191.632 247.423 190.816 248.429 190.816C249.435 190.816 250.251 191.632 250.251 192.638C250.252 193.402 249.779 194.054 249.112 194.325ZM253.072 187.005H244.299V184.601C244.299 182.182 246.267 180.214 248.685 180.214C251.104 180.214 253.071 182.182 253.071 184.601V187.005H253.072Z" fill="#263238"/>
<path d="M233.165 215.354C233.165 215.949 233.401 216.308 233.939 216.308C234.468 216.308 234.704 215.949 234.704 215.354V210.302H235.393V215.316C235.393 216.316 234.93 216.988 233.91 216.988C232.9 216.988 232.438 216.316 232.438 215.316V210.302H233.165V215.354Z" fill="#B2B2B2"/>
<path d="M238.982 211.889V212.069H238.283V211.851C238.283 211.256 238.056 210.907 237.528 210.907C236.999 210.907 236.773 211.256 236.773 211.843C236.773 213.325 238.992 213.467 238.992 215.327C238.992 216.328 238.509 216.979 237.499 216.979C236.489 216.979 236.018 216.328 236.018 215.327V214.949H236.706V215.364C236.706 215.959 236.952 216.308 237.48 216.308C238.009 216.308 238.254 215.959 238.254 215.364C238.254 213.892 236.045 213.749 236.045 211.889C236.045 210.869 236.518 210.237 237.509 210.237C238.509 210.237 238.982 210.888 238.982 211.889Z" fill="#B2B2B2"/>
<path d="M241.983 213.228V213.89H240.369V216.241H242.352V216.911H239.633V210.302H242.352V210.972H240.369V213.228H241.983Z" fill="#B2B2B2"/>
<path d="M244.503 210.302C245.542 210.302 245.976 210.831 245.976 211.812V212.351C245.976 213.077 245.721 213.531 245.155 213.711C245.758 213.89 245.985 214.381 245.985 215.09V216.119C245.985 216.411 245.995 216.685 246.117 216.913H245.371C245.286 216.724 245.248 216.554 245.248 216.11V215.071C245.248 214.325 244.899 214.088 244.286 214.088H243.767V216.911H243.029V210.302H244.503ZM244.314 213.418C244.899 213.418 245.249 213.23 245.249 212.512V211.879C245.249 211.284 245.032 210.973 244.484 210.973H243.767V213.418H244.314Z" fill="#B2B2B2"/>
<path d="M248.862 216.911H248.201V210.302H249.136L250.666 215.08V210.302H251.318V216.911H250.553L248.862 211.567V216.911Z" fill="#B2B2B2"/>
<path d="M252.818 215.58L252.563 216.911H251.883L253.148 210.302H254.216L255.481 216.911H254.744L254.489 215.58H252.818ZM252.912 214.947H254.386L253.639 211.132L252.912 214.947Z" fill="#B2B2B2"/>
<path d="M258.492 216.902H257.785L256.689 211.643V216.912H256.047V210.303H257.076L258.161 215.581L259.21 210.303H260.239V216.912H259.54V211.597L258.492 216.902Z" fill="#B2B2B2"/>
<path d="M263.343 213.228V213.89H261.729V216.241H263.711V216.911H260.992V210.302H263.711V210.972H261.729V213.228H263.343Z" fill="#B2B2B2"/>
<path d="M234.179 233.073L235.18 234.178L234.698 234.537L233.952 233.224L233.216 234.537L232.734 234.178L233.726 233.073L232.262 232.771L232.441 232.194L233.819 232.798L233.649 231.307H234.253L234.093 232.798L235.472 232.203L235.651 232.778L234.179 233.073Z" fill="#B2B2B2"/>
<path d="M237.908 233.073L238.908 234.178L238.427 234.537L237.68 233.224L236.944 234.537L236.463 234.178L237.454 233.073L235.99 232.771L236.169 232.194L237.548 232.798L237.378 231.307H237.982L237.822 232.798L239.201 232.203L239.38 232.778L237.908 233.073Z" fill="#B2B2B2"/>
<path d="M241.636 233.073L242.637 234.178L242.155 234.537L241.409 233.224L240.673 234.537L240.191 234.178L241.183 233.073L239.719 232.771L239.898 232.194L241.276 232.798L241.106 231.307H241.71L241.55 232.798L242.929 232.203L243.108 232.778L241.636 233.073Z" fill="#B2B2B2"/>
<path d="M245.363 233.073L246.363 234.178L245.882 234.537L245.136 233.224L244.399 234.537L243.918 234.178L244.909 233.073L243.445 232.771L243.624 232.194L245.003 232.798L244.833 231.307H245.437L245.277 232.798L246.656 232.203L246.835 232.778L245.363 233.073Z" fill="#B2B2B2"/>
<path d="M249.093 233.073L250.094 234.178L249.612 234.537L248.866 233.224L248.13 234.537L247.648 234.178L248.64 233.073L247.176 232.771L247.355 232.194L248.734 232.798L248.564 231.307H249.167L249.007 232.798L250.386 232.203L250.565 232.778L249.093 233.073Z" fill="#B2B2B2"/>
<path d="M252.822 233.073L253.822 234.178L253.341 234.537L252.595 233.224L251.858 234.537L251.377 234.178L252.368 233.073L250.904 232.771L251.083 232.194L252.462 232.798L252.292 231.307H252.896L252.736 232.798L254.115 232.203L254.294 232.778L252.822 233.073Z" fill="#B2B2B2"/>
<path d="M256.55 233.073L257.551 234.178L257.069 234.537L256.323 233.224L255.587 234.537L255.105 234.178L256.097 233.073L254.633 232.771L254.812 232.194L256.191 232.798L256.021 231.307H256.624L256.464 232.798L257.843 232.203L258.022 232.778L256.55 233.073Z" fill="#B2B2B2"/>
<path d="M260.279 233.073L261.279 234.178L260.798 234.537L260.052 233.224L259.315 234.537L258.834 234.178L259.825 233.073L258.361 232.771L258.54 232.194L259.919 232.798L259.749 231.307H260.353L260.193 232.798L261.572 232.203L261.751 232.778L260.279 233.073Z" fill="#B2B2B2"/>
<path d="M261.595 534.019C300.598 534.019 332.216 504.307 332.216 467.656C332.216 431.005 300.598 401.294 261.595 401.294C222.593 401.294 190.975 431.005 190.975 467.656C190.975 504.307 222.593 534.019 261.595 534.019Z" fill="#263238"/>
<path d="M260.115 530.563C299.118 530.563 330.735 500.851 330.735 464.2C330.735 427.549 299.118 397.838 260.115 397.838C221.112 397.838 189.494 427.549 189.494 464.2C189.494 500.851 221.112 530.563 260.115 530.563Z" fill="white" stroke="#263238" stroke-width="1.104" stroke-miterlimit="10"/>
<path d="M260.114 521.482C293.78 521.482 321.071 495.836 321.071 464.2C321.071 432.564 293.78 406.918 260.114 406.918C226.449 406.918 199.158 432.564 199.158 464.2C199.158 495.836 226.449 521.482 260.114 521.482Z" fill="white" stroke="#263238" stroke-width="1.104" stroke-miterlimit="10"/>
<path d="M277.002 425.631C252.536 425.631 232.703 450.554 232.703 481.297C232.703 501.13 240.964 518.529 253.392 528.388C255.444 528.56 257.519 528.663 259.619 528.663C285.335 528.663 307.765 515.498 319.737 495.958C320.75 491.285 321.301 486.373 321.301 481.297C321.301 450.554 301.468 425.631 277.002 425.631Z" fill="#263238"/>
<path d="M233.228 456.196H204.375V463.098H233.228V456.196Z" fill="white" stroke="#263238" stroke-width="1.104" stroke-miterlimit="10"/>
<path d="M270.289 500.618C294.589 500.618 314.289 482.106 314.289 459.271C314.289 436.436 294.589 417.924 270.289 417.924C245.988 417.924 226.289 436.436 226.289 459.271C226.289 482.106 245.988 500.618 270.289 500.618Z" fill="white" stroke="#263238" stroke-width="1.104" stroke-miterlimit="10"/>
<path d="M270.288 493.789C290.575 493.789 307.021 478.335 307.021 459.271C307.021 440.207 290.575 424.752 270.288 424.752C250.001 424.752 233.555 440.207 233.555 459.271C233.555 478.335 250.001 493.789 270.288 493.789Z" fill="#263238" stroke="#263238" stroke-width="1.104" stroke-miterlimit="10"/>
<path d="M254.897 427.614C254.663 427.04 254.392 426.476 254.077 425.928C250.331 419.41 250.799 411.114 253.609 403.411" stroke="#263238" stroke-width="1.104" stroke-miterlimit="10"/>
<path d="M255.482 441.335C255.482 441.335 257.446 433.876 254.896 427.614" stroke="white" stroke-width="1.104" stroke-miterlimit="10"/>
<path d="M268.591 425.928C264.845 419.41 265.313 411.114 268.123 403.411" stroke="#263238" stroke-width="1.104" stroke-miterlimit="10"/>
<path d="M269.996 441.334C269.996 441.334 272.337 432.446 268.592 425.928" stroke="white" stroke-width="1.104" stroke-miterlimit="10"/>
<path d="M283.568 426.806C283.425 426.509 283.272 426.216 283.106 425.928C279.361 419.41 279.829 411.114 282.638 403.411" stroke="#263238" stroke-width="1.104" stroke-miterlimit="10"/>
<path d="M284.509 441.335C284.509 441.335 286.648 433.215 283.566 426.807" stroke="white" stroke-width="1.104" stroke-miterlimit="10"/>
<path d="M424.087 397.707C424.087 397.707 422.938 397.77 420.881 397.993C418.931 391.374 413.084 371.784 409.245 361.662C404.58 349.365 398.219 331.979 393.979 324.77C389.738 317.561 390.162 313.321 382.105 306.536C374.048 299.751 366.839 302.72 366.839 302.72C366.839 302.72 365.567 297.632 357.51 295.087C349.453 292.542 338.428 297.632 338.428 297.632C338.428 297.632 336.732 294.663 328.675 295.511C320.618 296.359 317.649 303.568 317.649 303.568C317.649 303.568 301.111 270.492 294.75 267.947C288.389 265.403 282.029 271.764 284.572 277.7C287.117 283.636 306.198 316.713 308.743 324.346C311.288 331.979 316.8 344.701 316.8 344.701C316.8 344.701 298.567 331.555 293.053 330.282C287.541 329.011 279.484 328.162 274.818 333.251C270.154 338.339 281.18 339.612 290.085 347.669C298.989 355.726 313.408 374.385 320.192 386.259C326.977 398.132 341.394 400.253 347.755 407.037C352.232 411.813 358.595 418.474 361.975 422.004C359.845 424.22 358.781 425.696 358.781 425.696L372.775 460.044C372.775 460.044 375.744 455.38 387.617 446.05C399.491 436.721 436.383 425.272 436.383 425.272L424.087 397.707Z" fill="#263238" stroke="#263238" stroke-width="1.104" stroke-miterlimit="10"/>
<path d="M363.773 415.55C363.773 415.55 353.595 404.948 347.235 398.164C340.874 391.379 326.456 389.259 319.671 377.385C312.886 365.512 298.469 346.853 289.563 338.796C280.658 330.739 269.633 329.467 274.297 324.378C278.961 319.29 287.018 320.138 292.532 321.409C298.044 322.681 316.279 335.828 316.279 335.828C316.279 335.828 310.766 323.106 308.222 315.473C305.677 307.84 286.595 274.764 284.051 268.827C281.506 262.891 287.867 256.529 294.229 259.074C300.59 261.619 317.128 294.695 317.128 294.695C317.128 294.695 320.096 287.486 328.153 286.638C336.21 285.79 337.907 288.759 337.907 288.759C337.907 288.759 348.933 283.67 356.99 286.214C365.047 288.759 366.319 293.847 366.319 293.847C366.319 293.847 373.528 290.878 381.585 297.663C389.642 304.449 389.218 308.689 393.458 315.898C397.699 323.107 404.06 340.493 408.724 352.791C413.389 365.088 421.022 391.38 421.022 391.38L366.319 421.063L363.773 415.55Z" fill="white" stroke="#263238" stroke-width="1.104" stroke-miterlimit="10"/>
<path d="M317.127 294.695L331.969 316.747" stroke="#263238" stroke-width="1.104" stroke-miterlimit="10"/>
<path d="M337.906 288.759L351.476 309.961" stroke="#263238" stroke-width="1.104" stroke-miterlimit="10"/>
<path d="M366.318 293.847L375.647 310.385" stroke="#263238" stroke-width="1.104" stroke-miterlimit="10"/>
<path d="M322.82 354.797L324.76 360.422" stroke="#263238" stroke-width="1.104" stroke-miterlimit="10"/>
<path d="M316.277 335.828L321.471 350.888" stroke="#263238" stroke-width="1.104" stroke-miterlimit="10"/>
<path d="M340.027 321.835L343.42 326.499" stroke="#263238" stroke-width="1.104" stroke-miterlimit="10"/>
<path d="M355.717 317.17L359.533 322.258" stroke="#263238" stroke-width="1.104" stroke-miterlimit="10"/>
<path d="M376.494 314.625L379.039 322.682" stroke="#263238" stroke-width="1.104" stroke-miterlimit="10"/>
<path d="M358.262 416.822C358.262 416.822 368.016 403.253 387.945 396.468C407.875 389.683 423.565 388.835 423.565 388.835L435.863 416.399C435.863 416.399 398.971 427.848 387.097 437.177C375.224 446.506 372.255 451.171 372.255 451.171L358.262 416.822Z" fill="white" stroke="#263238" stroke-width="1.104" stroke-miterlimit="10"/>
<path d="M391.762 508.418C391.762 508.418 375.648 468.133 371.408 459.652C367.167 451.171 373.953 446.931 373.953 446.931C373.953 446.931 383.706 433.786 409.149 423.608C434.592 413.43 436.713 413.006 443.073 420.215C449.434 427.424 491.153 508.493 491.153 508.493" fill="white"/>
<path d="M391.762 508.418C391.762 508.418 375.648 468.133 371.408 459.652C367.167 451.171 373.953 446.931 373.953 446.931C373.953 446.931 383.706 433.786 409.149 423.608C434.592 413.43 436.713 413.006 443.073 420.215C449.434 427.424 491.153 508.493 491.153 508.493" stroke="#263238" stroke-width="1.104" stroke-miterlimit="10"/>
<path d="M127.049 466.029C127.049 466.029 132.813 453.67 146.541 446.666C160.268 439.663 169.189 436.649 182.325 423.693C195.46 410.736 217.109 399.164 226.036 397.569C234.963 395.973 237.926 392.133 234.08 387.752C230.234 383.371 219.74 383.13 210.394 386.287C201.047 389.444 192.413 393.307 192.413 393.307C197.146 383.987 200.295 372.765 204.955 363.41C208.262 356.772 213.692 345.819 216.906 339.134C219.004 334.772 225.256 327.508 222.476 322.744C219.677 317.949 212.995 321.139 209.605 325.695C204.22 332.936 177.867 372.663 177.867 372.663C182.873 362.065 187.879 351.468 192.884 340.871C200.493 324.763 204.121 317.084 203.044 319.363C205.265 314.664 209.583 308.372 206.947 302.953C204.274 297.458 196.535 296.894 193.324 302.126C189.661 308.096 161.653 361.099 161.653 361.099C161.653 361.099 179.185 315.604 181.425 310.376C184.162 303.99 182.545 298.425 178.508 298.457C172.64 298.504 169.867 304.999 167.567 309.418C167.995 308.796 168.422 308.176 168.849 307.554C163.363 314.868 159.674 324.48 155.087 332.416C149.724 341.693 144.172 350.861 138.437 359.911C139.564 350.536 143.327 341.754 147.988 333.622C150.801 328.717 162.511 316.671 160.511 310.749C158.788 305.651 145.945 315.23 138.476 325.687C134.404 331.387 123.735 346.927 120.802 357.858C117.869 368.789 97.3132 406.022 91.8241 416.395C86.335 426.768 79.7441 445.087 79.7441 445.087L127.049 466.029Z" fill="#263238" stroke="#263238" stroke-width="1.104" stroke-miterlimit="10"/>
<path d="M142.71 456.034C142.71 456.034 132.139 443.092 111.828 437.549C91.5178 432.006 75.8046 432.127 75.8046 432.127L65.2305 460.396C65.2305 460.396 102.759 469.549 115.185 478.129C127.612 486.708 130.862 491.18 130.862 491.18L142.71 456.034Z" fill="#263238" stroke="#263238" stroke-width="1.104" stroke-miterlimit="10"/>
<path d="M125.654 461.135C125.654 461.135 131.418 448.775 145.145 441.772C158.872 434.769 167.793 431.755 180.929 418.798C194.064 405.842 215.714 394.27 224.641 392.674C233.568 391.079 236.531 387.238 232.684 382.858C228.838 378.477 218.345 378.235 208.998 381.393C199.652 384.549 191.017 388.412 191.017 388.412C195.75 379.092 198.9 367.87 203.56 358.515C206.866 351.876 212.297 340.923 215.511 334.239C217.608 329.877 223.86 322.612 221.08 317.849C218.282 313.054 211.599 316.243 208.21 320.8C202.825 328.041 176.471 367.767 176.471 367.767C181.478 357.17 186.483 346.573 191.489 335.975C199.097 319.868 202.725 312.188 201.649 314.467C203.869 309.768 208.188 303.477 205.551 298.057C202.877 292.563 195.14 291.999 191.928 297.23C188.265 303.201 160.259 356.204 160.259 356.204C160.259 356.204 177.79 310.709 180.03 305.481C182.767 299.095 181.151 293.53 177.113 293.561C171.246 293.607 168.472 300.103 166.173 304.521C166.6 303.9 167.027 303.279 167.455 302.658C161.969 309.972 158.279 319.583 153.692 327.52C148.33 336.797 142.778 345.964 137.043 355.015C138.17 345.64 141.932 336.857 146.593 328.725C149.406 323.819 161.116 311.774 159.116 305.853C157.394 300.754 144.551 310.335 137.081 320.791C133.01 326.491 122.341 342.031 119.407 352.961C116.473 363.892 95.9187 401.126 90.4296 411.499C84.9405 421.872 78.3496 440.191 78.3496 440.191L125.654 461.135Z" fill="white" stroke="#263238" stroke-width="1.104" stroke-miterlimit="10"/>
<path d="M160.259 356.206L155.195 366.436" stroke="#263238" stroke-width="1.104" stroke-miterlimit="10"/>
<path d="M176.472 367.769L172.521 372.889" stroke="#263238" stroke-width="1.104" stroke-miterlimit="10"/>
<path d="M191.016 388.414L185.941 395.808" stroke="#263238" stroke-width="1.104" stroke-miterlimit="10"/>
<path d="M164.763 383.556L164.355 387.953" stroke="#263238" stroke-width="1.104" stroke-miterlimit="10"/>
<path d="M152.113 375.523L152.13 379.777" stroke="#263238" stroke-width="1.104" stroke-miterlimit="10"/>
<path d="M133.5 366.664L134.521 373.892" stroke="#263238" stroke-width="1.104" stroke-miterlimit="10"/>
<path d="M141.312 451.141C141.312 451.141 130.741 438.199 110.43 432.655C90.1194 427.112 74.4061 427.234 74.4061 427.234L63.832 455.503C63.832 455.503 101.36 464.656 113.787 473.235C126.214 481.814 129.464 486.287 129.464 486.287L141.312 451.141Z" fill="white" stroke="#263238" stroke-width="1.104" stroke-miterlimit="10"/>
<path d="M124.493 512.266C124.493 512.266 127.123 503.425 130.832 494.698C134.541 485.972 127.508 482.158 127.508 482.158C127.508 482.158 116.962 469.638 90.94 461.049C64.9176 452.46 62.7759 452.167 56.8717 459.755C50.9675 467.343 31.9688 512.942 31.9688 512.942" fill="white"/>
<path d="M124.493 512.266C124.493 512.266 127.123 503.425 130.832 494.698C134.541 485.972 127.508 482.158 127.508 482.158C127.508 482.158 116.962 469.638 90.94 461.049C64.9176 452.46 62.7759 452.167 56.8717 459.755C50.9675 467.343 31.9688 512.942 31.9688 512.942" stroke="#263238" stroke-width="1.104" stroke-miterlimit="10"/>
</svg>
