<svg width="16" height="16" viewBox="0 0 16 16" fill="none" xmlns="http://www.w3.org/2000/svg">
<path d="M8 0.125C10.0886 0.125 12.0916 0.954685 13.5685 2.43153C15.0453 3.90838 15.875 5.91142 15.875 8C15.875 10.0886 15.0453 12.0916 13.5685 13.5685C12.0916 15.0453 10.0886 15.875 8 15.875C5.91142 15.875 3.90838 15.0453 2.43153 13.5685C0.954685 12.0916 0.125 10.0886 0.125 8C0.125 5.91142 0.954685 3.90838 2.43153 2.43153C3.90838 0.954685 5.91142 0.125 8 0.125ZM7.019 9.55362L5.26962 7.80312C5.20691 7.74041 5.13246 7.69066 5.05052 7.65672C4.96858 7.62278 4.88075 7.60531 4.79206 7.60531C4.70337 7.60531 4.61555 7.62278 4.53361 7.65672C4.45167 7.69066 4.37721 7.74041 4.3145 7.80312C4.18784 7.92978 4.11669 8.10157 4.11669 8.28069C4.11669 8.45981 4.18784 8.63159 4.3145 8.75825L6.542 10.9858C6.60454 11.0488 6.67893 11.0988 6.76089 11.133C6.84286 11.1671 6.93077 11.1847 7.01956 11.1847C7.10835 11.1847 7.19627 11.1671 7.27823 11.133C7.3602 11.0988 7.43459 11.0488 7.49713 10.9858L12.1096 6.37213C12.1732 6.30967 12.2237 6.23525 12.2584 6.15316C12.293 6.07107 12.3111 5.98293 12.3115 5.89383C12.3119 5.80472 12.2947 5.71642 12.2608 5.63401C12.2269 5.5516 12.1771 5.47672 12.1141 5.41367C12.0511 5.35063 11.9763 5.30068 11.8939 5.2667C11.8115 5.23272 11.7233 5.21538 11.6342 5.21569C11.5451 5.216 11.4569 5.23395 11.3748 5.2685C11.2926 5.30305 11.2182 5.35352 11.1556 5.417L7.019 9.55362Z" fill="#2FA58E"/>
</svg>
