<svg width="41" height="38" viewBox="0 0 41 38" fill="none" xmlns="http://www.w3.org/2000/svg">
<path d="M20.2857 32.0286C23.7411 32.0286 27.055 30.656 29.4983 28.2127C31.9416 25.7693 33.3143 22.4555 33.3143 19.0001C33.3143 15.5447 31.9416 12.2308 29.4983 9.78748C27.055 7.34415 23.7411 5.9715 20.2857 5.9715C16.8303 5.9715 13.5165 7.34415 11.0731 9.78748C8.62979 12.2308 7.25714 15.5447 7.25714 19.0001C7.25714 22.4555 8.62979 25.7693 11.0731 28.2127C13.5165 30.656 16.8303 32.0286 20.2857 32.0286ZM20.2857 2.71436C22.4244 2.71436 24.5421 3.1356 26.518 3.95403C28.4939 4.77247 30.2892 5.97206 31.8015 7.48433C33.3137 8.9966 34.5133 10.7919 35.3318 12.7678C36.1502 14.7437 36.5714 16.8614 36.5714 19.0001C36.5714 23.3193 34.8556 27.4616 31.8015 30.5158C28.7473 33.57 24.605 35.2858 20.2857 35.2858C11.2797 35.2858 4 27.9572 4 19.0001C4 14.6808 5.71581 10.5385 8.76998 7.48433C11.8241 4.43017 15.9665 2.71436 20.2857 2.71436ZM21.1 10.8572V19.4072L28.4286 23.7555L27.2071 25.7586L18.6571 20.6286V10.8572H21.1Z" fill="black"/>
</svg>
